# AST/ASF file generated using VICON BodyLanguage
# -----------------------------------------------
:version 1.10
:name VICON
:units
  mass 1.0
  length 0.45
  angle deg
:documentation
   .ast/.asf automatically generated from VICON data using
   VICON BodyBuilder and BodyLanguage model FoxedUp or BRILLIANT.MOD
:root
   order TX TY TZ RX RY RZ
   axis XYZ
   position 0 0 0  
   orientation 0 0 0 
:bonedata
  begin
     id 1 
     name lhipjoint
     direction 0.566809 -0.746272 0.349008 
     length 2.40479 
     axis 0 0 0  XYZ
  end
  begin
     id 2 
     name lfemur
     direction 0.34202 -0.939693 0  
     length 7.1578  
     axis 0 0 20  XYZ
    dof rx ry rz
    limits (-160.0 20.0)
           (-70.0 70.0)
           (-60.0 70.0)
  end
  begin
     id 3 
     name ltibia
     direction 0.34202 -0.939693 0   
     length 7.49137   
     axis 0 0 20   XYZ
    dof rx
    limits (-10.0 170.0)
  end
  begin
     id 4 
     name lfoot
     direction 0.0665746 -0.182912 0.980873   
     length 2.36784   
     axis -90 7.62852e-016 20   XYZ
    dof rx rz
    limits (-45.0 90.0)
           (-70.0 20.0)
  end
  begin
     id 5 
     name ltoes
     direction 1.53601e-011 -4.22058e-011 1   
     length 1.18966   
     axis -90 7.62852e-016 20   XYZ
    dof rx
    limits (-90.0 20.0)
  end
  begin
     id 6 
     name rhipjoint
     direction -0.550236 -0.756381 0.353735   
     length 2.37265  
     axis 0 0 0  XYZ 
  end
  begin
     id 7 
     name rfemur
     direction -0.34202 -0.939693 0   
     length 7.43386   
     axis 0 0 -20   XYZ
    dof rx ry rz
    limits (-160.0 20.0)
           (-70.0 70.0)
           (-70.0 60.0)
  end
  begin
     id 8 
     name rtibia
     direction -0.34202 -0.939693 0   
     length 7.50908   
     axis 0 0 -20   XYZ
    dof rx
    limits (-10.0 170.0)
 end
 begin
     id 9 
     name rfoot
     direction -0.0683029 -0.187661 0.979856   
     length 2.41173  
     axis -90 -7.62852e-016 -20   XYZ
    dof rx rz
    limits (-45.0 90.0)
           (-20.0 70.0)
  end
  begin
     id 10 
     name rtoes
     direction -1.53528e-011 -4.21968e-011 1   
     length 1.21082   
     axis -90 -7.62852e-016 -20   XYZ
    dof rx
    limits (-90.0 20.0)
  end
  begin
     id 11 
     name lowerback
     direction 0.013823 0.995423 -0.0945635   
     length 2.04495   
     axis 0 0 0   XYZ
    dof rx ry rz
    limits (-20.0 45.0)
           (-30.0 30.0)
           (-30.0 30.0)
  end
  begin
     id 12 
     name upperback
     direction 0.0276657 0.9994 -0.020853   
     length 2.05008   
     axis 0 0 0   XYZ
    dof rx ry rz
    limits (-20.0 45.0)
           (-30.0 30.0)
           (-30.0 30.0)
  end
  begin
     id 13 
     name thorax
     direction 0.019782 0.999531 0.0233827   
     length 2.06488   
     axis 0 0 0   XYZ
    dof rx ry rz
    limits (-20.0 45.0)
           (-30.0 30.0)
           (-30.0 30.0)
  end
  begin
     id 14 
     name lowerneck
     direction -0.0308541 0.994709 0.0979874   
     length 1.75553   
     axis 0 0 0   XYZ
    dof rx ry rz
    limits (-20.0 45.0)
           (-30.0 30.0)
           (-30.0 30.0)
  end
  begin
     id 15 
     name upperneck
     direction 0.0588398 0.995804 -0.0700903   
     length 1.76878   
     axis 0 0 0   XYZ
    dof rx ry rz
    limits (-20.0 45.0)
           (-30.0 30.0)
           (-30.0 30.0)
  end
  begin
     id 16
     name head
     direction 0.0209966 0.999159 -0.0352225  
     length 1.77193  
     axis 0 0 0   XYZ
    dof rx ry rz
    limits (-20.0 45.0)
           (-30.0 30.0)
           (-30.0 30.0)
  end
  begin
     id 17 
     name lclavicle
     direction 0.938182 0.335073 -0.0868338  
     length 3.58396  
     axis 0 0 0   XYZ
    dof ry rz
    limits (-20.0 10.0)
           (0.0 20.0)
  end
  begin
     id 18 
     name lhumerus
     direction 1 -4.48971e-011 -1.26313e-017   
     length 4.983   
     axis 180 -30 -90   XYZ
    dof rx ry rz
    limits (-60.0 90.0)
           (-90.0 90.0)
           (-90.0 90.0)
  end
  begin
     id 19
     name lradius
     direction 1 -4.48948e-011 -5.89033e-027   
     length 3.48356   
     axis 180 -30 -90   XYZ
    dof rx
    limits (-10.0 170.0)
  end
  begin
     id 20
     name lwrist
     direction 1 -4.48977e-011 -1.48983e-026   
     length 1.74178   
     axis 9.0955e-015 90 90   XYZ
    dof ry
    limits (-180.0 0.0)
 end
  begin
     id 21 
     name lhand
     direction 1 -4.49046e-011 -2.98066e-026   
     length 0.715259   
     axis 1.90115e-014 90 90   XYZ
    dof rx rz
    limits (-90.0 90.0)
           (-45.0 45.0)
  end
  begin
     id 22 
     name lfingers
     direction 1 -4.48907e-011 -5.95731e-026   
     length 0.576661   
     axis 3.80223e-014 90 90   XYZ
    dof rx
    limits (0.0 90.0)
  end
  begin
     id 23
     name lthumb
     direction 0.707107 -6.34963e-011 0.707107   
     length 0.827973   
     axis -90 45 -3.84942e-014   XYZ
    dof rx rz
    limits (-45.0 45.0)
           (-45.0 45.0)
  end
  begin
     id 24 
     name rclavicle
     direction -0.909637 0.398485 -0.11735   
     length 3.44819  
     axis 0 0 0   XYZ 
    dof ry rz
    limits (-10.0 20.0)
           (-20.0 0.0)
  end
  begin
     id 25 
     name rhumerus
     direction -1 -4.48978e-011 -1.09333e-027  
     length 5.2419   
     axis 180 30 90   XYZ
    dof rx ry rz
    limits (-90.0 60.0)
           (-90.0 90.0)
           (-90.0 90.0)
  end
  begin
     id 26 
     name rradius
     direction -1 -4.48953e-011 -7.61841e-027   
     length 3.44417   
     axis 180 30 90   XYZ
    dof rx
    limits (-10.0 170.0)
  end
  begin
     id 27 
     name rwrist
     direction -1 -4.48977e-011 -1.48983e-026   
     length 1.72209   
     axis 9.0955e-015 -90 -90   XYZ
    dof ry
    limits (-180.0 0.0)
  end
  begin
     id 28
     name rhand
     direction -1 -4.49027e-011 -2.98038e-026   
     length 0.622529   
     axis 1.90115e-014 -90 -90   XYZ
    dof rx rz
    limits (-90.0 90.0)
           (-45.0 45.0)
  end
  begin
     id 29
     name rfingers
     direction -1 -4.48838e-011 -5.95531e-026   
     length 0.501899   
     axis 3.80223e-014 -90 -90   XYZ
    dof rx
    limits (0.0 90.0)
  end
  begin
     id 30
     name rthumb
     direction -0.707107 -6.34937e-011 0.707107   
     length 0.720629   
     axis -90 -45 3.84942e-014   XYZ
    dof rx rz
    limits (-45.0 45.0)
           (-45.0 45.0)
  end
:hierarchy
  begin
    root lhipjoint rhipjoint lowerback
    lhipjoint lfemur
    lfemur ltibia
    ltibia lfoot
    lfoot ltoes
    rhipjoint rfemur
    rfemur rtibia
    rtibia rfoot
    rfoot rtoes
    lowerback upperback
    upperback thorax
    thorax lowerneck lclavicle rclavicle
    lowerneck upperneck
    upperneck head
    lclavicle lhumerus
    lhumerus lradius
    lradius lwrist
    lwrist lhand lthumb
    lhand lfingers
    rclavicle rhumerus
    rhumerus rradius
    rradius rwrist
    rwrist rhand rthumb
    rhand rfingers
  end

#!OML:ASF F:\VICON\USERDATA\Patient Classification 1\PLAYGROUND\JustinFriday\JustinFriday.ASF
:FULLY-SPECIFIED
:DEGREES
806
root 14.7069 26.7826 46.7599 -352.403 -174.036 7.1405
lowerback 18.2912 -1.361 3.07485
upperback 7.48246 -2.5437 -1.62914
thorax -2.38222 -1.69043 -2.93808
lowerneck -2.9496 1.40942 -7.10758
upperneck -38.2056 -0.957037 16.6996
head -11.8978 -4.40013 8.65126
rclavicle -3.18055e-015 1.59028e-015
rhumerus 11.4943 37.8141 -76.1298
rradius 73.1019
rwrist 8.0576
rhand -22.5229 -10.5707
rfingers 7.12502
rthumb 3.90382 -40.5147
lclavicle -3.18055e-015 1.59028e-015
lhumerus 12.4274 -23.8893 73.2214
lradius 37.6211
lwrist -28.1598
lhand -28.1281 -26.6525
lfingers 7.12502
lthumb -1.50965 3.32186
rfemur -32.071 -5.93216 36.7038
rtibia 45.5714
rfoot -26.7533 -9.39517
rtoes 10.8979
lfemur -33.7292 13.7993 -7.76083
ltibia 66.7641
lfoot -21.532 -5.70076
ltoes 0.56589
807
root 14.7104 26.811 46.7347 -352.615 -173.701 7.20265
lowerback 18.1234 -1.46543 3.14014
upperback 7.47052 -2.65558 -1.53734
thorax -2.31447 -1.73913 -2.86027
lowerneck -2.91386 1.32126 -6.76492
upperneck -38.0528 -1.12651 16.2875
head -11.8234 -4.44482 8.39311
rclavicle 1.11319e-014 -3.18055e-014
rhumerus 12.3496 36.9208 -75.6302
rradius 75.5006
rwrist 8.99602
rhand -20.7308 -10.6475
rfingers 7.12502
rthumb 5.63428 -40.5526
lclavicle 1.11319e-014 -3.18055e-014
lhumerus 12.4586 -23.846 73.5238
lradius 36.7109
lwrist -27.9694
lhand -27.9978 -22.6989
lfingers 7.12502
lthumb -1.38376 7.27637
rfemur -31.5273 -6.35445 36.7753
rtibia 45.039
rfoot -26.5431 -9.36398
rtoes 10.0741
lfemur -33.968 13.6761 -7.68756
ltibia 66.9117
lfoot -21.7022 -5.97792
ltoes -1.34036
808
root 14.7136 26.8405 46.6987 -352.672 -173.777 7.36426
lowerback 17.6146 -1.4134 3.1565
upperback 7.48846 -2.57771 -1.44736
thorax -2.02248 -1.68967 -2.80743
lowerneck -2.7385 1.2755 -6.41012
upperneck -38.1085 -1.27103 15.8801
head -11.8751 -4.50529 8.1762
rclavicle -6.36111e-015 -3.81667e-014
rhumerus 13.254 37.4535 -74.6341
rradius 78.7162
rwrist 6.03126
rhand -26.176 -16.3605
rfingers 7.12502
rthumb 0.375791 -46.3399
lclavicle -6.36111e-015 -3.81667e-014
lhumerus 12.5861 -23.8841 73.6753
lradius 35.8542
lwrist -27.9812
lhand -21.4359 -27.1159
lfingers 7.12502
lthumb 4.95348 2.80624
rfemur -31.0357 -6.41666 36.9508
rtibia 44.5337
rfoot -26.4848 -9.06426
rtoes 11.1243
lfemur -34.216 13.9476 -7.46662
ltibia 66.9543
lfoot -21.9109 -6.29969
ltoes -3.14186
809
root 14.7155 26.8676 46.6599 -352.674 -174.057 7.36229
lowerback 16.9614 -1.27689 2.94291
upperback 7.51154 -2.4281 -1.38445
thorax -1.63945 -1.6065 -2.67035
lowerneck -2.78037 1.14581 -6.34131
upperneck -37.7294 -1.38573 15.7978
head -11.6847 -4.50295 8.06993
rclavicle 2.22639e-014 6.36111e-015
rhumerus 14.3911 36.7984 -73.7161
rradius 81.3896
rwrist 6.62243
rhand -27.5095 -16.5892
rfingers 7.12502
rthumb -0.91222 -46.567
lclavicle 2.22639e-014 6.36111e-015
lhumerus 12.6561 -24.0529 73.7903
lradius 35.2056
lwrist -27.8443
lhand -21.2741 -25.0198
lfingers 7.12502
lthumb 5.10974 4.89859
rfemur -30.5506 -6.30384 36.9413
rtibia 43.9774
rfoot -26.4113 -8.73391
rtoes 12.2921
lfemur -34.3631 14.2458 -7.42837
ltibia 66.8279
lfoot -22.0839 -6.79748
ltoes -3.55899
810
root 14.7197 26.8908 46.6587 -353.208 -173.252 7.07358
lowerback 17.472 -1.53838 2.74517
upperback 7.48454 -2.79435 -1.32543
thorax -1.9499 -1.80038 -2.4085
lowerneck -2.84478 1.01644 -6.12398
upperneck -37.3138 -1.52476 15.567
head -11.4793 -4.50856 7.87145
rclavicle -1.43125e-014 4.77083e-015
rhumerus 15.1285 35.4709 -73.4966
rradius 83.9086
rwrist 7.59798
rhand -27.7665 -12.3245
rfingers 7.12502
rthumb -1.16038 -42.3011
lclavicle -1.43125e-014 4.77083e-015
lhumerus 12.5336 -24.2297 74.0278
lradius 34.5059
lwrist -27.7749
lhand -21.3922 -23.7877
lfingers 7.12502
lthumb 4.99563 6.13344
rfemur -29.8568 -7.0934 36.5999
rtibia 43.4861
rfoot -26.254 -8.7491
rtoes 11.5424
lfemur -34.283 13.2519 -7.67494
ltibia 66.6831
lfoot -22.1189 -7.07103
ltoes -3.73223
811
root 14.7212 26.9158 46.6478 -353.551 -172.688 6.94559
lowerback 17.6285 -1.72822 2.69457
upperback 7.46256 -3.04299 -1.31821
thorax -2.0682 -1.9246 -2.31716
lowerneck -3.1393 1.02142 -5.99843
upperneck -36.668 -1.42076 15.3513
head -11.1676 -4.36727 7.64847
rclavicle 2.3059e-014 -6.36111e-015
rhumerus 16.4846 34.585 -72.8347
rradius 86.6611
rwrist 7.69465
rhand -28.0793 -11.2202
rfingers 7.12502
rthumb -1.46252 -41.1949
lclavicle 2.3059e-014 -6.36111e-015
lhumerus 12.4632 -24.3345 74.1899
lradius 33.7109
lwrist -27.6936
lhand -21.2941 -22.9784
lfingers 7.12502
lthumb 5.09038 6.94044
rfemur -29.2794 -7.72423 36.4336
rtibia 42.9666
rfoot -26.1781 -8.50785
rtoes 11.0553
lfemur -34.2819 12.6472 -7.78214
ltibia 66.4918
lfoot -22.2231 -7.45005
ltoes -4.47635
